<?xml version="1.0" encoding="UTF-8" standalone="no"?>
<!DOCTYPE svg PUBLIC "-//W3C//DTD SVG 1.1//EN"
 "http://www.w3.org/Graphics/SVG/1.1/DTD/svg11.dtd">
<!-- Generated by graphviz version 2.38.0 (20140413.2041)
 -->
<!-- Title: Inventory Pages: 1 -->
<svg width="142pt" height="240pt"
 viewBox="0.00 0.00 142.00 240.00" xmlns="http://www.w3.org/2000/svg" xmlns:xlink="http://www.w3.org/1999/xlink">
<g id="graph0" class="graph" transform="scale(1 1) rotate(0) translate(4 236)">
<title>Inventory</title>
<polygon fill="white" stroke="none" points="-4,4 -4,-236 138,-236 138,4 -4,4"/>
<!-- Node1 -->
<g id="node1" class="node"><title>Node1</title>
<polygon fill="#bfbfbf" stroke="black" points="15,-0.5 15,-19.5 77,-19.5 77,-0.5 15,-0.5"/>
<text text-anchor="middle" x="46" y="-7.5" font-family="Helvetica,sans-Serif" font-size="10.00">Inventory</text>
</g>
<!-- Node2 -->
<g id="node2" class="node"><title>Node2</title>
<g id="a_node2"><a xlink:href="structInventory_1_1Node.html" target="_top" xlink:title="Inventory::Node">
<polygon fill="white" stroke="black" points="0,-78.5 0,-97.5 92,-97.5 92,-78.5 0,-78.5"/>
<text text-anchor="middle" x="46" y="-85.5" font-family="Helvetica,sans-Serif" font-size="10.00">Inventory::Node</text>
</a>
</g>
</g>
<!-- Node2&#45;&gt;Node1 -->
<g id="edge1" class="edge"><title>Node2&#45;&gt;Node1</title>
<path fill="none" stroke="#9a32cd" stroke-dasharray="5,2" d="M46,-68.2239C46,-52.6974 46,-31.3582 46,-19.6165"/>
<polygon fill="#9a32cd" stroke="#9a32cd" points="42.5001,-68.2818 46,-78.2818 49.5001,-68.2819 42.5001,-68.2818"/>
<text text-anchor="middle" x="56.5" y="-52" font-family="Helvetica,sans-Serif" font-size="10.00"> last</text>
<text text-anchor="middle" x="56.5" y="-41" font-family="Helvetica,sans-Serif" font-size="10.00">first</text>
</g>
<!-- Node2&#45;&gt;Node2 -->
<g id="edge4" class="edge"><title>Node2&#45;&gt;Node2</title>
<path fill="none" stroke="#9a32cd" stroke-dasharray="5,2" d="M102.274,-92.6596C107.034,-91.6626 110,-90.1094 110,-88 110,-84.625 102.406,-82.6738 92.0242,-82.1465"/>
<polygon fill="#9a32cd" stroke="#9a32cd" points="101.552,-89.2199 92.0242,-93.8535 102.362,-96.1729 101.552,-89.2199"/>
<text text-anchor="middle" x="122" y="-85.5" font-family="Helvetica,sans-Serif" font-size="10.00"> next</text>
</g>
<!-- Node3 -->
<g id="node3" class="node"><title>Node3</title>
<g id="a_node3"><a xlink:href="classItemStack.html" target="_top" xlink:title="ItemStack">
<polygon fill="white" stroke="black" points="13.5,-145.5 13.5,-164.5 78.5,-164.5 78.5,-145.5 13.5,-145.5"/>
<text text-anchor="middle" x="46" y="-152.5" font-family="Helvetica,sans-Serif" font-size="10.00">ItemStack</text>
</a>
</g>
</g>
<!-- Node3&#45;&gt;Node2 -->
<g id="edge2" class="edge"><title>Node3&#45;&gt;Node2</title>
<path fill="none" stroke="#9a32cd" stroke-dasharray="5,2" d="M46,-135.037C46,-122.67 46,-107.12 46,-97.6273"/>
<polygon fill="#9a32cd" stroke="#9a32cd" points="42.5001,-135.234 46,-145.234 49.5001,-135.234 42.5001,-135.234"/>
<text text-anchor="middle" x="58.5" y="-119" font-family="Helvetica,sans-Serif" font-size="10.00"> data</text>
</g>
<!-- Node4 -->
<g id="node4" class="node"><title>Node4</title>
<g id="a_node4"><a xlink:href="classItem.html" target="_top" xlink:title="Item">
<polygon fill="white" stroke="black" points="27,-212.5 27,-231.5 65,-231.5 65,-212.5 27,-212.5"/>
<text text-anchor="middle" x="46" y="-219.5" font-family="Helvetica,sans-Serif" font-size="10.00">Item</text>
</a>
</g>
</g>
<!-- Node4&#45;&gt;Node3 -->
<g id="edge3" class="edge"><title>Node4&#45;&gt;Node3</title>
<path fill="none" stroke="#9a32cd" stroke-dasharray="5,2" d="M46,-202.037C46,-189.67 46,-174.12 46,-164.627"/>
<polygon fill="#9a32cd" stroke="#9a32cd" points="42.5001,-202.234 46,-212.234 49.5001,-202.234 42.5001,-202.234"/>
<text text-anchor="middle" x="57.5" y="-186" font-family="Helvetica,sans-Serif" font-size="10.00"> item</text>
</g>
</g>
</svg>
