<?xml version="1.0" encoding="UTF-8" standalone="no"?>
<!DOCTYPE svg PUBLIC "-//W3C//DTD SVG 1.1//EN"
 "http://www.w3.org/Graphics/SVG/1.1/DTD/svg11.dtd">
<!-- Generated by graphviz version 2.38.0 (20140413.2041)
 -->
<!-- Title: Graph Legend Pages: 1 -->
<svg width="538pt" height="159pt"
 viewBox="0.00 0.00 537.50 159.00" xmlns="http://www.w3.org/2000/svg" xmlns:xlink="http://www.w3.org/1999/xlink">
<g id="graph0" class="graph" transform="scale(1 1) rotate(0) translate(4 155)">
<title>Graph Legend</title>
<polygon fill="white" stroke="none" points="-4,4 -4,-155 533.5,-155 533.5,4 -4,4"/>
<!-- Node9 -->
<g id="node1" class="node"><title>Node9</title>
<polygon fill="#bfbfbf" stroke="black" points="312,-19 253,-19 253,-0 312,-0 312,-19"/>
<text text-anchor="middle" x="282.5" y="-7" font-family="Helvetica,sans-Serif" font-size="10.00">Inherited</text>
</g>
<!-- Node10 -->
<g id="node2" class="node"><title>Node10</title>
<g id="a_node2"><a xlink:href="$classPublicBase.html" xlink:title="PublicBase">
<polygon fill="none" stroke="black" points="71,-85 0,-85 0,-66 71,-66 71,-85"/>
<text text-anchor="middle" x="35.5" y="-73" font-family="Helvetica,sans-Serif" font-size="10.00">PublicBase</text>
</a>
</g>
</g>
<!-- Node10&#45;&gt;Node9 -->
<g id="edge1" class="edge"><title>Node10&#45;&gt;Node9</title>
<path fill="none" stroke="midnightblue" d="M78.3974,-63.3849C128.272,-50.462 209.284,-29.471 252.729,-18.2139"/>
<polygon fill="midnightblue" stroke="midnightblue" points="77.3576,-60.0386 68.5552,-65.9351 79.1135,-66.8149 77.3576,-60.0386"/>
</g>
<!-- Node11 -->
<g id="node3" class="node"><title>Node11</title>
<g id="a_node3"><a xlink:href="$classTruncated.html" xlink:title="Truncated">
<polygon fill="none" stroke="red" points="68.5,-151 2.5,-151 2.5,-132 68.5,-132 68.5,-151"/>
<text text-anchor="middle" x="35.5" y="-139" font-family="Helvetica,sans-Serif" font-size="10.00">Truncated</text>
</a>
</g>
</g>
<!-- Node11&#45;&gt;Node10 -->
<g id="edge2" class="edge"><title>Node11&#45;&gt;Node10</title>
<path fill="none" stroke="midnightblue" d="M35.5,-121.584C35.5,-109.625 35.5,-94.7211 35.5,-85.4052"/>
<polygon fill="midnightblue" stroke="midnightblue" points="32.0001,-121.869 35.5,-131.869 39.0001,-121.869 32.0001,-121.869"/>
</g>
<!-- Node13 -->
<g id="node4" class="node"><title>Node13</title>
<g id="a_node4"><a xlink:href="$classProtectedBase.html" xlink:title="ProtectedBase">
<polygon fill="none" stroke="black" points="177.5,-85 89.5,-85 89.5,-66 177.5,-66 177.5,-85"/>
<text text-anchor="middle" x="133.5" y="-73" font-family="Helvetica,sans-Serif" font-size="10.00">ProtectedBase</text>
</a>
</g>
</g>
<!-- Node13&#45;&gt;Node9 -->
<g id="edge3" class="edge"><title>Node13&#45;&gt;Node9</title>
<path fill="none" stroke="darkgreen" d="M162.93,-61.8588C192.293,-49.2465 236.621,-30.2063 262.248,-19.199"/>
<polygon fill="darkgreen" stroke="darkgreen" points="161.402,-58.7061 153.595,-65.8687 164.164,-65.1379 161.402,-58.7061"/>
</g>
<!-- Node14 -->
<g id="node5" class="node"><title>Node14</title>
<g id="a_node5"><a xlink:href="$classPrivateBase.html" xlink:title="PrivateBase">
<polygon fill="none" stroke="black" points="270,-85 195,-85 195,-66 270,-66 270,-85"/>
<text text-anchor="middle" x="232.5" y="-73" font-family="Helvetica,sans-Serif" font-size="10.00">PrivateBase</text>
</a>
</g>
</g>
<!-- Node14&#45;&gt;Node9 -->
<g id="edge4" class="edge"><title>Node14&#45;&gt;Node9</title>
<path fill="none" stroke="#8b1a1a" d="M245.572,-57.7673C255.164,-45.4902 267.815,-29.2973 275.543,-19.4052"/>
<polygon fill="#8b1a1a" stroke="#8b1a1a" points="242.642,-55.8336 239.243,-65.8687 248.158,-60.1432 242.642,-55.8336"/>
</g>
<!-- Node15 -->
<g id="node6" class="node"><title>Node15</title>
<polygon fill="none" stroke="#bfbfbf" points="377,-85 288,-85 288,-66 377,-66 377,-85"/>
<text text-anchor="middle" x="332.5" y="-73" font-family="Helvetica,sans-Serif" font-size="10.00">Undocumented</text>
</g>
<!-- Node15&#45;&gt;Node9 -->
<g id="edge5" class="edge"><title>Node15&#45;&gt;Node9</title>
<path fill="none" stroke="midnightblue" d="M319.428,-57.7673C309.836,-45.4902 297.185,-29.2973 289.457,-19.4052"/>
<polygon fill="midnightblue" stroke="midnightblue" points="316.842,-60.1432 325.757,-65.8687 322.358,-55.8336 316.842,-60.1432"/>
</g>
<!-- Node16 -->
<g id="node7" class="node"><title>Node16</title>
<g id="a_node7"><a xlink:href="$classTempl.html" xlink:title="Templ&lt; int &gt;">
<polygon fill="none" stroke="black" points="470,-85 395,-85 395,-66 470,-66 470,-85"/>
<text text-anchor="middle" x="432.5" y="-73" font-family="Helvetica,sans-Serif" font-size="10.00">Templ&lt; int &gt;</text>
</a>
</g>
</g>
<!-- Node16&#45;&gt;Node9 -->
<g id="edge6" class="edge"><title>Node16&#45;&gt;Node9</title>
<path fill="none" stroke="midnightblue" d="M402.872,-61.8588C373.312,-49.2465 328.687,-30.2063 302.888,-19.199"/>
<polygon fill="midnightblue" stroke="midnightblue" points="401.699,-65.1635 412.27,-65.8687 404.446,-58.725 401.699,-65.1635"/>
</g>
<!-- Node17 -->
<g id="node8" class="node"><title>Node17</title>
<g id="a_node8"><a xlink:href="$classTempl.html" xlink:title="Templ&lt; T &gt;">
<polygon fill="none" stroke="black" points="468,-151 397,-151 397,-132 468,-132 468,-151"/>
<text text-anchor="middle" x="432.5" y="-139" font-family="Helvetica,sans-Serif" font-size="10.00">Templ&lt; T &gt;</text>
</a>
</g>
</g>
<!-- Node17&#45;&gt;Node16 -->
<g id="edge7" class="edge"><title>Node17&#45;&gt;Node16</title>
<path fill="none" stroke="orange" stroke-dasharray="5,2" d="M432.5,-121.584C432.5,-109.625 432.5,-94.7211 432.5,-85.4052"/>
<polygon fill="orange" stroke="orange" points="429,-121.869 432.5,-131.869 436,-121.869 429,-121.869"/>
<text text-anchor="middle" x="447.5" y="-106" font-family="Helvetica,sans-Serif" font-size="10.00">&lt; int &gt;</text>
</g>
<!-- Node18 -->
<g id="node9" class="node"><title>Node18</title>
<g id="a_node9"><a xlink:href="$classUsed.html" xlink:title="Used">
<polygon fill="none" stroke="black" points="529.5,-85 487.5,-85 487.5,-66 529.5,-66 529.5,-85"/>
<text text-anchor="middle" x="508.5" y="-73" font-family="Helvetica,sans-Serif" font-size="10.00">Used</text>
</a>
</g>
</g>
<!-- Node18&#45;&gt;Node9 -->
<g id="edge8" class="edge"><title>Node18&#45;&gt;Node9</title>
<path fill="none" stroke="#9a32cd" stroke-dasharray="5,2" d="M477.456,-65.7087C433.796,-53.3448 354.814,-30.9782 312.003,-18.8548"/>
<polygon fill="#9a32cd" stroke="#9a32cd" points="476.663,-69.1218 487.238,-68.479 478.57,-62.3867 476.663,-69.1218"/>
<text text-anchor="middle" x="443" y="-40" font-family="Helvetica,sans-Serif" font-size="10.00">m_usedClass</text>
</g>
</g>
</svg>
