<?xml version="1.0" encoding="UTF-8" standalone="no"?>
<!DOCTYPE svg PUBLIC "-//W3C//DTD SVG 1.1//EN"
 "http://www.w3.org/Graphics/SVG/1.1/DTD/svg11.dtd">
<!-- Generated by graphviz version 2.38.0 (20140413.2041)
 -->
<!-- Title: source/Inventory.h Pages: 1 -->
<svg width="150pt" height="196pt"
 viewBox="0.00 0.00 149.50 196.00" xmlns="http://www.w3.org/2000/svg" xmlns:xlink="http://www.w3.org/1999/xlink">
<g id="graph0" class="graph" transform="scale(1 1) rotate(0) translate(4 192)">
<title>source/Inventory.h</title>
<polygon fill="white" stroke="none" points="-4,4 -4,-192 145.5,-192 145.5,4 -4,4"/>
<!-- Node1 -->
<g id="node1" class="node"><title>Node1</title>
<polygon fill="#bfbfbf" stroke="black" points="0,-168.5 0,-187.5 107,-187.5 107,-168.5 0,-168.5"/>
<text text-anchor="middle" x="53.5" y="-175.5" font-family="Helvetica,sans-Serif" font-size="10.00">source/Inventory.h</text>
</g>
<!-- Node2 -->
<g id="node2" class="node"><title>Node2</title>
<polygon fill="white" stroke="#bfbfbf" points="21.5,-0.5 21.5,-19.5 79.5,-19.5 79.5,-0.5 21.5,-0.5"/>
<text text-anchor="middle" x="50.5" y="-7.5" font-family="Helvetica,sans-Serif" font-size="10.00">iostream</text>
</g>
<!-- Node1&#45;&gt;Node2 -->
<g id="edge1" class="edge"><title>Node1&#45;&gt;Node2</title>
<path fill="none" stroke="midnightblue" d="M50.156,-168.197C46.9458,-159.24 42.3236,-144.883 40.5,-132 35.397,-95.9494 41.7332,-53.4599 46.3949,-29.6338"/>
<polygon fill="midnightblue" stroke="midnightblue" points="49.8832,-30.0495 48.4913,-19.5465 43.0296,-28.6251 49.8832,-30.0495"/>
</g>
<!-- Node3 -->
<g id="node3" class="node"><title>Node3</title>
<g id="a_node3"><a xlink:href="ItemStack_8h.html" target="_top" xlink:title="ItemStack.h">
<polygon fill="white" stroke="black" points="50,-112.5 50,-131.5 123,-131.5 123,-112.5 50,-112.5"/>
<text text-anchor="middle" x="86.5" y="-119.5" font-family="Helvetica,sans-Serif" font-size="10.00">ItemStack.h</text>
</a>
</g>
</g>
<!-- Node1&#45;&gt;Node3 -->
<g id="edge2" class="edge"><title>Node1&#45;&gt;Node3</title>
<path fill="none" stroke="midnightblue" d="M58.9493,-168.083C63.5145,-160.613 70.1684,-149.724 75.7934,-140.52"/>
<polygon fill="midnightblue" stroke="midnightblue" points="78.9241,-142.109 81.1521,-131.751 72.9511,-138.459 78.9241,-142.109"/>
</g>
<!-- Node3&#45;&gt;Node2 -->
<g id="edge3" class="edge"><title>Node3&#45;&gt;Node2</title>
<path fill="none" stroke="midnightblue" d="M83.6751,-112.368C77.8393,-94.5366 64.3421,-53.2953 56.4798,-29.2717"/>
<polygon fill="midnightblue" stroke="midnightblue" points="59.7486,-28.0067 53.3117,-19.5914 53.0958,-30.1841 59.7486,-28.0067"/>
</g>
<!-- Node4 -->
<g id="node4" class="node"><title>Node4</title>
<g id="a_node4"><a xlink:href="Item_8h.html" target="_top" xlink:title="Item.h">
<polygon fill="white" stroke="black" points="87.5,-56.5 87.5,-75.5 133.5,-75.5 133.5,-56.5 87.5,-56.5"/>
<text text-anchor="middle" x="110.5" y="-63.5" font-family="Helvetica,sans-Serif" font-size="10.00">Item.h</text>
</a>
</g>
</g>
<!-- Node3&#45;&gt;Node4 -->
<g id="edge4" class="edge"><title>Node3&#45;&gt;Node4</title>
<path fill="none" stroke="midnightblue" d="M90.4631,-112.083C93.7133,-104.77 98.4194,-94.1814 102.454,-85.1034"/>
<polygon fill="midnightblue" stroke="midnightblue" points="105.748,-86.3107 106.611,-75.7511 99.3508,-83.4677 105.748,-86.3107"/>
</g>
<!-- Node4&#45;&gt;Node2 -->
<g id="edge5" class="edge"><title>Node4&#45;&gt;Node2</title>
<path fill="none" stroke="midnightblue" d="M100.86,-56.324C91.9904,-48.3414 78.6253,-36.3128 67.8921,-26.6529"/>
<polygon fill="midnightblue" stroke="midnightblue" points="70.0898,-23.922 60.3154,-19.8339 65.407,-29.1251 70.0898,-23.922"/>
</g>
<!-- Node5 -->
<g id="node5" class="node"><title>Node5</title>
<polygon fill="white" stroke="#bfbfbf" points="97.5,-0.5 97.5,-19.5 141.5,-19.5 141.5,-0.5 97.5,-0.5"/>
<text text-anchor="middle" x="119.5" y="-7.5" font-family="Helvetica,sans-Serif" font-size="10.00">string</text>
</g>
<!-- Node4&#45;&gt;Node5 -->
<g id="edge6" class="edge"><title>Node4&#45;&gt;Node5</title>
<path fill="none" stroke="midnightblue" d="M111.986,-56.083C113.179,-48.9272 114.894,-38.6353 116.385,-29.6911"/>
<polygon fill="midnightblue" stroke="midnightblue" points="119.85,-30.1904 118.041,-19.7511 112.945,-29.0396 119.85,-30.1904"/>
</g>
</g>
</svg>
