<?xml version="1.0" encoding="UTF-8" standalone="no"?>
<!DOCTYPE svg PUBLIC "-//W3C//DTD SVG 1.1//EN"
 "http://www.w3.org/Graphics/SVG/1.1/DTD/svg11.dtd">
<!-- Generated by graphviz version 2.38.0 (20140413.2041)
 -->
<!-- Title: source/Inventory.cpp Pages: 1 -->
<svg width="192pt" height="252pt"
 viewBox="0.00 0.00 191.50 252.00" xmlns="http://www.w3.org/2000/svg" xmlns:xlink="http://www.w3.org/1999/xlink">
<g id="graph0" class="graph" transform="scale(1 1) rotate(0) translate(4 248)">
<title>source/Inventory.cpp</title>
<polygon fill="white" stroke="none" points="-4,4 -4,-248 187.5,-248 187.5,4 -4,4"/>
<!-- Node1 -->
<g id="node1" class="node"><title>Node1</title>
<polygon fill="#bfbfbf" stroke="black" points="0,-224.5 0,-243.5 119,-243.5 119,-224.5 0,-224.5"/>
<text text-anchor="middle" x="59.5" y="-231.5" font-family="Helvetica,sans-Serif" font-size="10.00">source/Inventory.cpp</text>
</g>
<!-- Node2 -->
<g id="node2" class="node"><title>Node2</title>
<polygon fill="white" stroke="#bfbfbf" points="2,-168.5 2,-187.5 43,-187.5 43,-168.5 2,-168.5"/>
<text text-anchor="middle" x="22.5" y="-175.5" font-family="Helvetica,sans-Serif" font-size="10.00">utility</text>
</g>
<!-- Node1&#45;&gt;Node2 -->
<g id="edge1" class="edge"><title>Node1&#45;&gt;Node2</title>
<path fill="none" stroke="midnightblue" d="M53.3902,-224.083C48.2178,-216.534 40.6539,-205.495 34.3056,-196.23"/>
<polygon fill="midnightblue" stroke="midnightblue" points="37.0357,-194.022 28.4961,-187.751 31.2612,-197.979 37.0357,-194.022"/>
</g>
<!-- Node3 -->
<g id="node3" class="node"><title>Node3</title>
<g id="a_node3"><a xlink:href="Inventory_8h.html" target="_top" xlink:title="Inventory.h">
<polygon fill="white" stroke="black" points="61,-168.5 61,-187.5 132,-187.5 132,-168.5 61,-168.5"/>
<text text-anchor="middle" x="96.5" y="-175.5" font-family="Helvetica,sans-Serif" font-size="10.00">Inventory.h</text>
</a>
</g>
</g>
<!-- Node1&#45;&gt;Node3 -->
<g id="edge2" class="edge"><title>Node1&#45;&gt;Node3</title>
<path fill="none" stroke="midnightblue" d="M65.6098,-224.083C70.7822,-216.534 78.3461,-205.495 84.6944,-196.23"/>
<polygon fill="midnightblue" stroke="midnightblue" points="87.7388,-197.979 90.5039,-187.751 81.9643,-194.022 87.7388,-197.979"/>
</g>
<!-- Node4 -->
<g id="node4" class="node"><title>Node4</title>
<polygon fill="white" stroke="#bfbfbf" points="63.5,-0.5 63.5,-19.5 121.5,-19.5 121.5,-0.5 63.5,-0.5"/>
<text text-anchor="middle" x="92.5" y="-7.5" font-family="Helvetica,sans-Serif" font-size="10.00">iostream</text>
</g>
<!-- Node3&#45;&gt;Node4 -->
<g id="edge3" class="edge"><title>Node3&#45;&gt;Node4</title>
<path fill="none" stroke="midnightblue" d="M93.156,-168.197C89.9458,-159.24 85.3236,-144.883 83.5,-132 78.4003,-95.9727 84.2801,-53.475 88.6445,-29.6411"/>
<polygon fill="midnightblue" stroke="midnightblue" points="92.1335,-30.0351 90.6105,-19.5503 85.2627,-28.6964 92.1335,-30.0351"/>
</g>
<!-- Node5 -->
<g id="node5" class="node"><title>Node5</title>
<g id="a_node5"><a xlink:href="ItemStack_8h.html" target="_top" xlink:title="ItemStack.h">
<polygon fill="white" stroke="black" points="92,-112.5 92,-131.5 165,-131.5 165,-112.5 92,-112.5"/>
<text text-anchor="middle" x="128.5" y="-119.5" font-family="Helvetica,sans-Serif" font-size="10.00">ItemStack.h</text>
</a>
</g>
</g>
<!-- Node3&#45;&gt;Node5 -->
<g id="edge4" class="edge"><title>Node3&#45;&gt;Node5</title>
<path fill="none" stroke="midnightblue" d="M101.784,-168.083C106.211,-160.613 112.663,-149.724 118.118,-140.52"/>
<polygon fill="midnightblue" stroke="midnightblue" points="121.227,-142.138 123.314,-131.751 115.205,-138.57 121.227,-142.138"/>
</g>
<!-- Node5&#45;&gt;Node4 -->
<g id="edge5" class="edge"><title>Node5&#45;&gt;Node4</title>
<path fill="none" stroke="midnightblue" d="M125.675,-112.368C119.839,-94.5366 106.342,-53.2953 98.4798,-29.2717"/>
<polygon fill="midnightblue" stroke="midnightblue" points="101.749,-28.0067 95.3117,-19.5914 95.0958,-30.1841 101.749,-28.0067"/>
</g>
<!-- Node6 -->
<g id="node6" class="node"><title>Node6</title>
<g id="a_node6"><a xlink:href="Item_8h.html" target="_top" xlink:title="Item.h">
<polygon fill="white" stroke="black" points="129.5,-56.5 129.5,-75.5 175.5,-75.5 175.5,-56.5 129.5,-56.5"/>
<text text-anchor="middle" x="152.5" y="-63.5" font-family="Helvetica,sans-Serif" font-size="10.00">Item.h</text>
</a>
</g>
</g>
<!-- Node5&#45;&gt;Node6 -->
<g id="edge6" class="edge"><title>Node5&#45;&gt;Node6</title>
<path fill="none" stroke="midnightblue" d="M132.463,-112.083C135.713,-104.77 140.419,-94.1814 144.454,-85.1034"/>
<polygon fill="midnightblue" stroke="midnightblue" points="147.748,-86.3107 148.611,-75.7511 141.351,-83.4677 147.748,-86.3107"/>
</g>
<!-- Node6&#45;&gt;Node4 -->
<g id="edge7" class="edge"><title>Node6&#45;&gt;Node4</title>
<path fill="none" stroke="midnightblue" d="M142.86,-56.324C133.99,-48.3414 120.625,-36.3128 109.892,-26.6529"/>
<polygon fill="midnightblue" stroke="midnightblue" points="112.09,-23.922 102.315,-19.8339 107.407,-29.1251 112.09,-23.922"/>
</g>
<!-- Node7 -->
<g id="node7" class="node"><title>Node7</title>
<polygon fill="white" stroke="#bfbfbf" points="139.5,-0.5 139.5,-19.5 183.5,-19.5 183.5,-0.5 139.5,-0.5"/>
<text text-anchor="middle" x="161.5" y="-7.5" font-family="Helvetica,sans-Serif" font-size="10.00">string</text>
</g>
<!-- Node6&#45;&gt;Node7 -->
<g id="edge8" class="edge"><title>Node6&#45;&gt;Node7</title>
<path fill="none" stroke="midnightblue" d="M153.986,-56.083C155.179,-48.9272 156.894,-38.6353 158.385,-29.6911"/>
<polygon fill="midnightblue" stroke="midnightblue" points="161.85,-30.1904 160.041,-19.7511 154.945,-29.0396 161.85,-30.1904"/>
</g>
</g>
</svg>
