<?xml version="1.0" encoding="UTF-8" standalone="no"?>
<!DOCTYPE svg PUBLIC "-//W3C//DTD SVG 1.1//EN"
 "http://www.w3.org/Graphics/SVG/1.1/DTD/svg11.dtd">
<!-- Generated by graphviz version 2.38.0 (20140413.2041)
 -->
<!-- Title: source/ItemStack.h Pages: 1 -->
<svg width="351pt" height="140pt"
 viewBox="0.00 0.00 350.50 140.00" xmlns="http://www.w3.org/2000/svg" xmlns:xlink="http://www.w3.org/1999/xlink">
<g id="graph0" class="graph" transform="scale(1 1) rotate(0) translate(4 136)">
<title>source/ItemStack.h</title>
<polygon fill="white" stroke="none" points="-4,4 -4,-136 346.5,-136 346.5,4 -4,4"/>
<!-- Node1 -->
<g id="node1" class="node"><title>Node1</title>
<polygon fill="#bfbfbf" stroke="black" points="137.5,-112.5 137.5,-131.5 247.5,-131.5 247.5,-112.5 137.5,-112.5"/>
<text text-anchor="middle" x="192.5" y="-119.5" font-family="Helvetica,sans-Serif" font-size="10.00">source/ItemStack.h</text>
</g>
<!-- Node2 -->
<g id="node2" class="node"><title>Node2</title>
<g id="a_node2"><a xlink:href="Inventory_8h.html" target="_top" xlink:title="source/Inventory.h">
<polygon fill="white" stroke="black" points="57,-56.5 57,-75.5 164,-75.5 164,-56.5 57,-56.5"/>
<text text-anchor="middle" x="110.5" y="-63.5" font-family="Helvetica,sans-Serif" font-size="10.00">source/Inventory.h</text>
</a>
</g>
</g>
<!-- Node1&#45;&gt;Node2 -->
<g id="edge1" class="edge"><title>Node1&#45;&gt;Node2</title>
<path fill="none" stroke="midnightblue" d="M170.667,-106.622C155.687,-96.7574 136.303,-83.9919 123.642,-75.6545"/>
<polygon fill="midnightblue" stroke="midnightblue" points="169.049,-109.747 179.325,-112.324 172.899,-103.901 169.049,-109.747"/>
</g>
<!-- Node4 -->
<g id="node4" class="node"><title>Node4</title>
<g id="a_node4"><a xlink:href="storage_8cpp.html" target="_top" xlink:title="source/storage.cpp">
<polygon fill="white" stroke="black" points="137.5,-0.5 137.5,-19.5 247.5,-19.5 247.5,-0.5 137.5,-0.5"/>
<text text-anchor="middle" x="192.5" y="-7.5" font-family="Helvetica,sans-Serif" font-size="10.00">source/storage.cpp</text>
</a>
</g>
</g>
<!-- Node1&#45;&gt;Node4 -->
<g id="edge5" class="edge"><title>Node1&#45;&gt;Node4</title>
<path fill="none" stroke="midnightblue" d="M192.5,-102.348C192.5,-78.2538 192.5,-37.3079 192.5,-19.5914"/>
<polygon fill="midnightblue" stroke="midnightblue" points="189,-102.368 192.5,-112.368 196,-102.369 189,-102.368"/>
</g>
<!-- Node5 -->
<g id="node5" class="node"><title>Node5</title>
<g id="a_node5"><a xlink:href="ItemStack_8cpp.html" target="_top" xlink:title="source/ItemStack.cpp">
<polygon fill="white" stroke="black" points="220.5,-56.5 220.5,-75.5 342.5,-75.5 342.5,-56.5 220.5,-56.5"/>
<text text-anchor="middle" x="281.5" y="-63.5" font-family="Helvetica,sans-Serif" font-size="10.00">source/ItemStack.cpp</text>
</a>
</g>
</g>
<!-- Node1&#45;&gt;Node5 -->
<g id="edge4" class="edge"><title>Node1&#45;&gt;Node5</title>
<path fill="none" stroke="midnightblue" d="M215.738,-106.901C232.058,-96.9986 253.365,-84.0705 267.236,-75.6545"/>
<polygon fill="midnightblue" stroke="midnightblue" points="213.533,-104.144 206.799,-112.324 217.164,-110.129 213.533,-104.144"/>
</g>
<!-- Node3 -->
<g id="node3" class="node"><title>Node3</title>
<g id="a_node3"><a xlink:href="Inventory_8cpp.html" target="_top" xlink:title="source/Inventory.cpp">
<polygon fill="white" stroke="black" points="0,-0.5 0,-19.5 119,-19.5 119,-0.5 0,-0.5"/>
<text text-anchor="middle" x="59.5" y="-7.5" font-family="Helvetica,sans-Serif" font-size="10.00">source/Inventory.cpp</text>
</a>
</g>
</g>
<!-- Node2&#45;&gt;Node3 -->
<g id="edge2" class="edge"><title>Node2&#45;&gt;Node3</title>
<path fill="none" stroke="midnightblue" d="M95.1221,-48.7175C86.1331,-39.1997 75.1408,-27.5608 67.7649,-19.7511"/>
<polygon fill="midnightblue" stroke="midnightblue" points="92.6676,-51.216 102.078,-56.083 97.7567,-46.4096 92.6676,-51.216"/>
</g>
<!-- Node2&#45;&gt;Node4 -->
<g id="edge3" class="edge"><title>Node2&#45;&gt;Node4</title>
<path fill="none" stroke="midnightblue" d="M132.333,-50.6221C147.313,-40.7574 166.697,-27.9919 179.358,-19.6545"/>
<polygon fill="midnightblue" stroke="midnightblue" points="130.101,-47.9009 123.675,-56.324 133.951,-53.7471 130.101,-47.9009"/>
</g>
</g>
</svg>
