<?xml version="1.0" encoding="UTF-8" standalone="no"?>
<!DOCTYPE svg PUBLIC "-//W3C//DTD SVG 1.1//EN"
 "http://www.w3.org/Graphics/SVG/1.1/DTD/svg11.dtd">
<!-- Generated by graphviz version 2.38.0 (20140413.2041)
 -->
<!-- Title: source/ItemStack.h Pages: 1 -->
<svg width="129pt" height="140pt"
 viewBox="0.00 0.00 129.00 140.00" xmlns="http://www.w3.org/2000/svg" xmlns:xlink="http://www.w3.org/1999/xlink">
<g id="graph0" class="graph" transform="scale(1 1) rotate(0) translate(4 136)">
<title>source/ItemStack.h</title>
<polygon fill="white" stroke="none" points="-4,4 -4,-136 125,-136 125,4 -4,4"/>
<!-- Node1 -->
<g id="node1" class="node"><title>Node1</title>
<polygon fill="#bfbfbf" stroke="black" points="0,-112.5 0,-131.5 110,-131.5 110,-112.5 0,-112.5"/>
<text text-anchor="middle" x="55" y="-119.5" font-family="Helvetica,sans-Serif" font-size="10.00">source/ItemStack.h</text>
</g>
<!-- Node2 -->
<g id="node2" class="node"><title>Node2</title>
<polygon fill="white" stroke="#bfbfbf" points="1,-0.5 1,-19.5 59,-19.5 59,-0.5 1,-0.5"/>
<text text-anchor="middle" x="30" y="-7.5" font-family="Helvetica,sans-Serif" font-size="10.00">iostream</text>
</g>
<!-- Node1&#45;&gt;Node2 -->
<g id="edge1" class="edge"><title>Node1&#45;&gt;Node2</title>
<path fill="none" stroke="midnightblue" d="M53.0383,-112.368C49.0039,-94.617 39.6969,-53.6664 34.2267,-29.5974"/>
<polygon fill="midnightblue" stroke="midnightblue" points="37.5818,-28.567 31.9526,-19.5914 30.7559,-30.1185 37.5818,-28.567"/>
</g>
<!-- Node3 -->
<g id="node3" class="node"><title>Node3</title>
<g id="a_node3"><a xlink:href="Item_8h.html" target="_top" xlink:title="Item.h">
<polygon fill="white" stroke="black" points="58,-56.5 58,-75.5 104,-75.5 104,-56.5 58,-56.5"/>
<text text-anchor="middle" x="81" y="-63.5" font-family="Helvetica,sans-Serif" font-size="10.00">Item.h</text>
</a>
</g>
</g>
<!-- Node1&#45;&gt;Node3 -->
<g id="edge2" class="edge"><title>Node1&#45;&gt;Node3</title>
<path fill="none" stroke="midnightblue" d="M59.2934,-112.083C62.8523,-104.691 68.0225,-93.9533 72.4243,-84.8111"/>
<polygon fill="midnightblue" stroke="midnightblue" points="75.6018,-86.2795 76.7865,-75.7511 69.2948,-83.2427 75.6018,-86.2795"/>
</g>
<!-- Node3&#45;&gt;Node2 -->
<g id="edge3" class="edge"><title>Node3&#45;&gt;Node2</title>
<path fill="none" stroke="midnightblue" d="M72.5784,-56.083C65.1518,-48.2195 54.1483,-36.5688 45.1878,-27.0813"/>
<polygon fill="midnightblue" stroke="midnightblue" points="47.6757,-24.618 38.2649,-19.7511 42.5866,-29.4244 47.6757,-24.618"/>
</g>
<!-- Node4 -->
<g id="node4" class="node"><title>Node4</title>
<polygon fill="white" stroke="#bfbfbf" points="77,-0.5 77,-19.5 121,-19.5 121,-0.5 77,-0.5"/>
<text text-anchor="middle" x="99" y="-7.5" font-family="Helvetica,sans-Serif" font-size="10.00">string</text>
</g>
<!-- Node3&#45;&gt;Node4 -->
<g id="edge4" class="edge"><title>Node3&#45;&gt;Node4</title>
<path fill="none" stroke="midnightblue" d="M83.9723,-56.083C86.3838,-48.8486 89.8638,-38.4087 92.8677,-29.3968"/>
<polygon fill="midnightblue" stroke="midnightblue" points="96.241,-30.3447 96.083,-19.7511 89.6002,-28.1311 96.241,-30.3447"/>
</g>
</g>
</svg>
