<?xml version="1.0" encoding="UTF-8" standalone="no"?>
<!DOCTYPE svg PUBLIC "-//W3C//DTD SVG 1.1//EN"
 "http://www.w3.org/Graphics/SVG/1.1/DTD/svg11.dtd">
<!-- Generated by graphviz version 2.38.0 (20140413.2041)
 -->
<!-- Title: source/Item.h Pages: 1 -->
<svg width="476pt" height="196pt"
 viewBox="0.00 0.00 476.00 196.00" xmlns="http://www.w3.org/2000/svg" xmlns:xlink="http://www.w3.org/1999/xlink">
<g id="graph0" class="graph" transform="scale(1 1) rotate(0) translate(4 192)">
<title>source/Item.h</title>
<polygon fill="white" stroke="none" points="-4,4 -4,-192 472,-192 472,4 -4,4"/>
<!-- Node1 -->
<g id="node1" class="node"><title>Node1</title>
<polygon fill="#bfbfbf" stroke="black" points="303,-168.5 303,-187.5 386,-187.5 386,-168.5 303,-168.5"/>
<text text-anchor="middle" x="344.5" y="-175.5" font-family="Helvetica,sans-Serif" font-size="10.00">source/Item.h</text>
</g>
<!-- Node2 -->
<g id="node2" class="node"><title>Node2</title>
<g id="a_node2"><a xlink:href="ItemStack_8h.html" target="_top" xlink:title="source/ItemStack.h">
<polygon fill="white" stroke="black" points="156.5,-112.5 156.5,-131.5 266.5,-131.5 266.5,-112.5 156.5,-112.5"/>
<text text-anchor="middle" x="211.5" y="-119.5" font-family="Helvetica,sans-Serif" font-size="10.00">source/ItemStack.h</text>
</a>
</g>
</g>
<!-- Node1&#45;&gt;Node2 -->
<g id="edge1" class="edge"><title>Node1&#45;&gt;Node2</title>
<path fill="none" stroke="midnightblue" d="M314.052,-164.638C289.093,-154.504 254.423,-140.427 232.476,-131.516"/>
<polygon fill="midnightblue" stroke="midnightblue" points="312.844,-167.924 323.426,-168.444 315.477,-161.439 312.844,-167.924"/>
</g>
<!-- Node5 -->
<g id="node5" class="node"><title>Node5</title>
<g id="a_node5"><a xlink:href="storage_8cpp.html" target="_top" xlink:title="source/storage.cpp">
<polygon fill="white" stroke="black" points="137.5,-0.5 137.5,-19.5 247.5,-19.5 247.5,-0.5 137.5,-0.5"/>
<text text-anchor="middle" x="192.5" y="-7.5" font-family="Helvetica,sans-Serif" font-size="10.00">source/storage.cpp</text>
</a>
</g>
</g>
<!-- Node1&#45;&gt;Node5 -->
<g id="edge8" class="edge"><title>Node1&#45;&gt;Node5</title>
<path fill="none" stroke="midnightblue" d="M347.052,-158.459C349.545,-132.442 349.967,-85.0395 325.5,-56 306.26,-33.1641 274.979,-21.8788 247.587,-16.3189"/>
<polygon fill="midnightblue" stroke="midnightblue" points="343.565,-158.137 345.882,-168.476 350.518,-158.949 343.565,-158.137"/>
</g>
<!-- Node7 -->
<g id="node7" class="node"><title>Node7</title>
<g id="a_node7"><a xlink:href="Item_8cpp.html" target="_top" xlink:title="source/Item.cpp">
<polygon fill="white" stroke="black" points="373,-112.5 373,-131.5 468,-131.5 468,-112.5 373,-112.5"/>
<text text-anchor="middle" x="420.5" y="-119.5" font-family="Helvetica,sans-Serif" font-size="10.00">source/Item.cpp</text>
</a>
</g>
</g>
<!-- Node1&#45;&gt;Node7 -->
<g id="edge7" class="edge"><title>Node1&#45;&gt;Node7</title>
<path fill="none" stroke="midnightblue" d="M365.076,-162.38C378.812,-152.62 396.425,-140.106 408.067,-131.834"/>
<polygon fill="midnightblue" stroke="midnightblue" points="362.835,-159.679 356.711,-168.324 366.89,-165.385 362.835,-159.679"/>
</g>
<!-- Node3 -->
<g id="node3" class="node"><title>Node3</title>
<g id="a_node3"><a xlink:href="Inventory_8h.html" target="_top" xlink:title="source/Inventory.h">
<polygon fill="white" stroke="black" points="31,-56.5 31,-75.5 138,-75.5 138,-56.5 31,-56.5"/>
<text text-anchor="middle" x="84.5" y="-63.5" font-family="Helvetica,sans-Serif" font-size="10.00">source/Inventory.h</text>
</a>
</g>
</g>
<!-- Node2&#45;&gt;Node3 -->
<g id="edge2" class="edge"><title>Node2&#45;&gt;Node3</title>
<path fill="none" stroke="midnightblue" d="M182.109,-108.503C158.3,-98.3795 125.394,-84.388 104.529,-75.5164"/>
<polygon fill="midnightblue" stroke="midnightblue" points="180.804,-111.751 191.376,-112.444 183.543,-105.31 180.804,-111.751"/>
</g>
<!-- Node2&#45;&gt;Node5 -->
<g id="edge6" class="edge"><title>Node2&#45;&gt;Node5</title>
<path fill="none" stroke="midnightblue" d="M198.774,-103.901C193.569,-95.8685 188.154,-85.8969 185.5,-76 180.209,-56.267 185.819,-32.1485 189.617,-19.5673"/>
<polygon fill="midnightblue" stroke="midnightblue" points="196.036,-106.094 204.61,-112.319 201.789,-102.106 196.036,-106.094"/>
</g>
<!-- Node6 -->
<g id="node6" class="node"><title>Node6</title>
<g id="a_node6"><a xlink:href="ItemStack_8cpp.html" target="_top" xlink:title="source/ItemStack.cpp">
<polygon fill="white" stroke="black" points="194.5,-56.5 194.5,-75.5 316.5,-75.5 316.5,-56.5 194.5,-56.5"/>
<text text-anchor="middle" x="255.5" y="-63.5" font-family="Helvetica,sans-Serif" font-size="10.00">source/ItemStack.cpp</text>
</a>
</g>
</g>
<!-- Node2&#45;&gt;Node6 -->
<g id="edge5" class="edge"><title>Node2&#45;&gt;Node6</title>
<path fill="none" stroke="midnightblue" d="M225.235,-104.144C232.901,-94.7357 242.133,-83.4046 248.369,-75.7511"/>
<polygon fill="midnightblue" stroke="midnightblue" points="222.369,-102.12 218.766,-112.083 227.796,-106.541 222.369,-102.12"/>
</g>
<!-- Node4 -->
<g id="node4" class="node"><title>Node4</title>
<g id="a_node4"><a xlink:href="Inventory_8cpp.html" target="_top" xlink:title="source/Inventory.cpp">
<polygon fill="white" stroke="black" points="0,-0.5 0,-19.5 119,-19.5 119,-0.5 0,-0.5"/>
<text text-anchor="middle" x="59.5" y="-7.5" font-family="Helvetica,sans-Serif" font-size="10.00">source/Inventory.cpp</text>
</a>
</g>
</g>
<!-- Node3&#45;&gt;Node4 -->
<g id="edge3" class="edge"><title>Node3&#45;&gt;Node4</title>
<path fill="none" stroke="midnightblue" d="M76.1587,-46.9827C71.9152,-37.8168 66.9501,-27.0922 63.5514,-19.7511"/>
<polygon fill="midnightblue" stroke="midnightblue" points="72.9943,-48.4788 80.3718,-56.083 79.3466,-45.5379 72.9943,-48.4788"/>
</g>
<!-- Node3&#45;&gt;Node5 -->
<g id="edge4" class="edge"><title>Node3&#45;&gt;Node5</title>
<path fill="none" stroke="midnightblue" d="M111.048,-51.7261C131.046,-41.7271 157.887,-28.3065 175.191,-19.6545"/>
<polygon fill="midnightblue" stroke="midnightblue" points="109.231,-48.7213 101.852,-56.324 112.362,-54.9823 109.231,-48.7213"/>
</g>
</g>
</svg>
