<?xml version="1.0" encoding="UTF-8" standalone="no"?>
<!DOCTYPE svg PUBLIC "-//W3C//DTD SVG 1.1//EN"
 "http://www.w3.org/Graphics/SVG/1.1/DTD/svg11.dtd">
<!-- Generated by graphviz version 2.38.0 (20140413.2041)
 -->
<!-- Title: operator&lt;&lt; Pages: 1 -->
<svg width="218pt" height="104pt"
 viewBox="0.00 0.00 218.00 104.00" xmlns="http://www.w3.org/2000/svg" xmlns:xlink="http://www.w3.org/1999/xlink">
<g id="graph0" class="graph" transform="scale(1 1) rotate(0) translate(4 100)">
<title>operator&lt;&lt;</title>
<polygon fill="white" stroke="none" points="-4,4 -4,-100 214,-100 214,4 -4,4"/>
<!-- Node1 -->
<g id="node1" class="node"><title>Node1</title>
<polygon fill="#bfbfbf" stroke="black" points="0,-38.5 0,-57.5 69,-57.5 69,-38.5 0,-38.5"/>
<text text-anchor="middle" x="34.5" y="-45.5" font-family="Helvetica,sans-Serif" font-size="10.00">operator&lt;&lt;</text>
</g>
<!-- Node2 -->
<g id="node2" class="node"><title>Node2</title>
<g id="a_node2"><a xlink:href="classItemStack.html#a6df8d027946917f55cbe447fec17d4a2" target="_top" xlink:title="ItemStack::size">
<polygon fill="white" stroke="black" points="113,-76.5 113,-95.5 202,-95.5 202,-76.5 113,-76.5"/>
<text text-anchor="middle" x="157.5" y="-83.5" font-family="Helvetica,sans-Serif" font-size="10.00">ItemStack::size</text>
</a>
</g>
</g>
<!-- Node1&#45;&gt;Node2 -->
<g id="edge1" class="edge"><title>Node1&#45;&gt;Node2</title>
<path fill="none" stroke="midnightblue" d="M66.0334,-57.589C81.2234,-62.3594 99.7853,-68.1888 116.133,-73.3229"/>
<polygon fill="midnightblue" stroke="midnightblue" points="115.387,-76.757 125.976,-76.4141 117.484,-70.0786 115.387,-76.757"/>
</g>
<!-- Node3 -->
<g id="node3" class="node"><title>Node3</title>
<g id="a_node3"><a xlink:href="classItemStack.html#a8808ce789a62c3e9eafa45d16c06cc82" target="_top" xlink:title="ItemStack::getItem">
<polygon fill="white" stroke="black" points="105,-38.5 105,-57.5 210,-57.5 210,-38.5 105,-38.5"/>
<text text-anchor="middle" x="157.5" y="-45.5" font-family="Helvetica,sans-Serif" font-size="10.00">ItemStack::getItem</text>
</a>
</g>
</g>
<!-- Node1&#45;&gt;Node3 -->
<g id="edge2" class="edge"><title>Node1&#45;&gt;Node3</title>
<path fill="none" stroke="midnightblue" d="M69.2052,-48C77.1464,-48 85.8594,-48 94.6111,-48"/>
<polygon fill="midnightblue" stroke="midnightblue" points="94.8589,-51.5001 104.859,-48 94.8588,-44.5001 94.8589,-51.5001"/>
</g>
<!-- Node4 -->
<g id="node4" class="node"><title>Node4</title>
<g id="a_node4"><a xlink:href="classItem.html#a116308353701daee0b4fc3e1d0cac104" target="_top" xlink:title="Item::getName">
<polygon fill="white" stroke="black" points="115,-0.5 115,-19.5 200,-19.5 200,-0.5 115,-0.5"/>
<text text-anchor="middle" x="157.5" y="-7.5" font-family="Helvetica,sans-Serif" font-size="10.00">Item::getName</text>
</a>
</g>
</g>
<!-- Node1&#45;&gt;Node4 -->
<g id="edge3" class="edge"><title>Node1&#45;&gt;Node4</title>
<path fill="none" stroke="midnightblue" d="M66.0334,-38.411C81.2234,-33.6406 99.7853,-27.8112 116.133,-22.6771"/>
<polygon fill="midnightblue" stroke="midnightblue" points="117.484,-25.9214 125.976,-19.5859 115.387,-19.243 117.484,-25.9214"/>
</g>
</g>
</svg>
