<?xml version="1.0" encoding="UTF-8" standalone="no"?>
<!DOCTYPE svg PUBLIC "-//W3C//DTD SVG 1.1//EN"
 "http://www.w3.org/Graphics/SVG/1.1/DTD/svg11.dtd">
<!-- Generated by graphviz version 2.38.0 (20140413.2041)
 -->
<!-- Title: source/Item.cpp Pages: 1 -->
<svg width="160pt" height="140pt"
 viewBox="0.00 0.00 159.50 140.00" xmlns="http://www.w3.org/2000/svg" xmlns:xlink="http://www.w3.org/1999/xlink">
<g id="graph0" class="graph" transform="scale(1 1) rotate(0) translate(4 136)">
<title>source/Item.cpp</title>
<polygon fill="white" stroke="none" points="-4,4 -4,-136 155.5,-136 155.5,4 -4,4"/>
<!-- Node1 -->
<g id="node1" class="node"><title>Node1</title>
<polygon fill="#bfbfbf" stroke="black" points="13,-112.5 13,-131.5 108,-131.5 108,-112.5 13,-112.5"/>
<text text-anchor="middle" x="60.5" y="-119.5" font-family="Helvetica,sans-Serif" font-size="10.00">source/Item.cpp</text>
</g>
<!-- Node2 -->
<g id="node2" class="node"><title>Node2</title>
<polygon fill="white" stroke="#bfbfbf" points="0,-56.5 0,-75.5 53,-75.5 53,-56.5 0,-56.5"/>
<text text-anchor="middle" x="26.5" y="-63.5" font-family="Helvetica,sans-Serif" font-size="10.00">iomanip</text>
</g>
<!-- Node1&#45;&gt;Node2 -->
<g id="edge1" class="edge"><title>Node1&#45;&gt;Node2</title>
<path fill="none" stroke="midnightblue" d="M54.8856,-112.083C50.1326,-104.534 43.1819,-93.4948 37.3484,-84.2298"/>
<polygon fill="midnightblue" stroke="midnightblue" points="40.2999,-82.3486 32.0099,-75.7511 34.3763,-86.0783 40.2999,-82.3486"/>
</g>
<!-- Node3 -->
<g id="node3" class="node"><title>Node3</title>
<g id="a_node3"><a xlink:href="Item_8h.html" target="_top" xlink:title="Item.h">
<polygon fill="white" stroke="black" points="71.5,-56.5 71.5,-75.5 117.5,-75.5 117.5,-56.5 71.5,-56.5"/>
<text text-anchor="middle" x="94.5" y="-63.5" font-family="Helvetica,sans-Serif" font-size="10.00">Item.h</text>
</a>
</g>
</g>
<!-- Node1&#45;&gt;Node3 -->
<g id="edge2" class="edge"><title>Node1&#45;&gt;Node3</title>
<path fill="none" stroke="midnightblue" d="M66.1144,-112.083C70.8674,-104.534 77.8181,-93.4948 83.6516,-84.2298"/>
<polygon fill="midnightblue" stroke="midnightblue" points="86.6237,-86.0783 88.9901,-75.7511 80.7001,-82.3486 86.6237,-86.0783"/>
</g>
<!-- Node4 -->
<g id="node4" class="node"><title>Node4</title>
<polygon fill="white" stroke="#bfbfbf" points="31.5,-0.5 31.5,-19.5 89.5,-19.5 89.5,-0.5 31.5,-0.5"/>
<text text-anchor="middle" x="60.5" y="-7.5" font-family="Helvetica,sans-Serif" font-size="10.00">iostream</text>
</g>
<!-- Node3&#45;&gt;Node4 -->
<g id="edge3" class="edge"><title>Node3&#45;&gt;Node4</title>
<path fill="none" stroke="midnightblue" d="M88.8856,-56.083C84.1326,-48.5341 77.1819,-37.4948 71.3484,-28.2298"/>
<polygon fill="midnightblue" stroke="midnightblue" points="74.2999,-26.3486 66.0099,-19.7511 68.3763,-30.0783 74.2999,-26.3486"/>
</g>
<!-- Node5 -->
<g id="node5" class="node"><title>Node5</title>
<polygon fill="white" stroke="#bfbfbf" points="107.5,-0.5 107.5,-19.5 151.5,-19.5 151.5,-0.5 107.5,-0.5"/>
<text text-anchor="middle" x="129.5" y="-7.5" font-family="Helvetica,sans-Serif" font-size="10.00">string</text>
</g>
<!-- Node3&#45;&gt;Node5 -->
<g id="edge4" class="edge"><title>Node3&#45;&gt;Node5</title>
<path fill="none" stroke="midnightblue" d="M100.28,-56.083C105.172,-48.5341 112.327,-37.4948 118.333,-28.2298"/>
<polygon fill="midnightblue" stroke="midnightblue" points="121.326,-30.0463 123.828,-19.7511 115.452,-26.239 121.326,-30.0463"/>
</g>
</g>
</svg>
