<?xml version="1.0" encoding="UTF-8" standalone="no"?>
<!DOCTYPE svg PUBLIC "-//W3C//DTD SVG 1.1//EN"
 "http://www.w3.org/Graphics/SVG/1.1/DTD/svg11.dtd">
<!-- Generated by graphviz version 2.38.0 (20140413.2041)
 -->
<!-- Title: source/ItemStack.cpp Pages: 1 -->
<svg width="181pt" height="196pt"
 viewBox="0.00 0.00 180.50 196.00" xmlns="http://www.w3.org/2000/svg" xmlns:xlink="http://www.w3.org/1999/xlink">
<g id="graph0" class="graph" transform="scale(1 1) rotate(0) translate(4 192)">
<title>source/ItemStack.cpp</title>
<polygon fill="white" stroke="none" points="-4,4 -4,-192 176.5,-192 176.5,4 -4,4"/>
<!-- Node1 -->
<g id="node1" class="node"><title>Node1</title>
<polygon fill="#bfbfbf" stroke="black" points="5.5,-168.5 5.5,-187.5 127.5,-187.5 127.5,-168.5 5.5,-168.5"/>
<text text-anchor="middle" x="66.5" y="-175.5" font-family="Helvetica,sans-Serif" font-size="10.00">source/ItemStack.cpp</text>
</g>
<!-- Node2 -->
<g id="node2" class="node"><title>Node2</title>
<polygon fill="white" stroke="#bfbfbf" points="0,-112.5 0,-131.5 53,-131.5 53,-112.5 0,-112.5"/>
<text text-anchor="middle" x="26.5" y="-119.5" font-family="Helvetica,sans-Serif" font-size="10.00">iomanip</text>
</g>
<!-- Node1&#45;&gt;Node2 -->
<g id="edge1" class="edge"><title>Node1&#45;&gt;Node2</title>
<path fill="none" stroke="midnightblue" d="M59.8948,-168.083C54.2448,-160.455 45.9552,-149.264 39.0488,-139.941"/>
<polygon fill="midnightblue" stroke="midnightblue" points="41.7471,-137.703 32.9823,-131.751 36.1221,-141.87 41.7471,-137.703"/>
</g>
<!-- Node3 -->
<g id="node3" class="node"><title>Node3</title>
<g id="a_node3"><a xlink:href="ItemStack_8h.html" target="_top" xlink:title="ItemStack.h">
<polygon fill="white" stroke="black" points="71,-112.5 71,-131.5 144,-131.5 144,-112.5 71,-112.5"/>
<text text-anchor="middle" x="107.5" y="-119.5" font-family="Helvetica,sans-Serif" font-size="10.00">ItemStack.h</text>
</a>
</g>
</g>
<!-- Node1&#45;&gt;Node3 -->
<g id="edge2" class="edge"><title>Node1&#45;&gt;Node3</title>
<path fill="none" stroke="midnightblue" d="M73.2703,-168.083C79.0616,-160.455 87.5585,-149.264 94.6375,-139.941"/>
<polygon fill="midnightblue" stroke="midnightblue" points="97.5961,-141.832 100.856,-131.751 92.021,-137.599 97.5961,-141.832"/>
</g>
<!-- Node4 -->
<g id="node4" class="node"><title>Node4</title>
<polygon fill="white" stroke="#bfbfbf" points="52.5,-0.5 52.5,-19.5 110.5,-19.5 110.5,-0.5 52.5,-0.5"/>
<text text-anchor="middle" x="81.5" y="-7.5" font-family="Helvetica,sans-Serif" font-size="10.00">iostream</text>
</g>
<!-- Node3&#45;&gt;Node4 -->
<g id="edge3" class="edge"><title>Node3&#45;&gt;Node4</title>
<path fill="none" stroke="midnightblue" d="M105.46,-112.368C101.264,-94.617 91.5848,-53.6664 85.8958,-29.5974"/>
<polygon fill="midnightblue" stroke="midnightblue" points="89.2372,-28.5182 83.5307,-19.5914 82.4249,-30.1284 89.2372,-28.5182"/>
</g>
<!-- Node5 -->
<g id="node5" class="node"><title>Node5</title>
<g id="a_node5"><a xlink:href="Item_8h.html" target="_top" xlink:title="Item.h">
<polygon fill="white" stroke="black" points="109.5,-56.5 109.5,-75.5 155.5,-75.5 155.5,-56.5 109.5,-56.5"/>
<text text-anchor="middle" x="132.5" y="-63.5" font-family="Helvetica,sans-Serif" font-size="10.00">Item.h</text>
</a>
</g>
</g>
<!-- Node3&#45;&gt;Node5 -->
<g id="edge4" class="edge"><title>Node3&#45;&gt;Node5</title>
<path fill="none" stroke="midnightblue" d="M111.628,-112.083C115.014,-104.77 119.916,-94.1814 124.119,-85.1034"/>
<polygon fill="midnightblue" stroke="midnightblue" points="127.423,-86.2962 128.449,-75.7511 121.071,-83.3553 127.423,-86.2962"/>
</g>
<!-- Node5&#45;&gt;Node4 -->
<g id="edge5" class="edge"><title>Node5&#45;&gt;Node4</title>
<path fill="none" stroke="midnightblue" d="M124.078,-56.083C116.652,-48.2195 105.648,-36.5688 96.6878,-27.0813"/>
<polygon fill="midnightblue" stroke="midnightblue" points="99.1757,-24.618 89.7649,-19.7511 94.0866,-29.4244 99.1757,-24.618"/>
</g>
<!-- Node6 -->
<g id="node6" class="node"><title>Node6</title>
<polygon fill="white" stroke="#bfbfbf" points="128.5,-0.5 128.5,-19.5 172.5,-19.5 172.5,-0.5 128.5,-0.5"/>
<text text-anchor="middle" x="150.5" y="-7.5" font-family="Helvetica,sans-Serif" font-size="10.00">string</text>
</g>
<!-- Node5&#45;&gt;Node6 -->
<g id="edge6" class="edge"><title>Node5&#45;&gt;Node6</title>
<path fill="none" stroke="midnightblue" d="M135.472,-56.083C137.884,-48.8486 141.364,-38.4087 144.368,-29.3968"/>
<polygon fill="midnightblue" stroke="midnightblue" points="147.741,-30.3447 147.583,-19.7511 141.1,-28.1311 147.741,-30.3447"/>
</g>
</g>
</svg>
