<?xml version="1.0" encoding="UTF-8" standalone="no"?>
<!DOCTYPE svg PUBLIC "-//W3C//DTD SVG 1.1//EN"
 "http://www.w3.org/Graphics/SVG/1.1/DTD/svg11.dtd">
<!-- Generated by graphviz version 2.38.0 (20140413.2041)
 -->
<!-- Title: main Pages: 1 -->
<svg width="338pt" height="142pt"
 viewBox="0.00 0.00 338.00 142.00" xmlns="http://www.w3.org/2000/svg" xmlns:xlink="http://www.w3.org/1999/xlink">
<g id="graph0" class="graph" transform="scale(1 1) rotate(0) translate(4 138)">
<title>main</title>
<polygon fill="white" stroke="none" points="-4,4 -4,-138 334,-138 334,4 -4,4"/>
<!-- Node1 -->
<g id="node1" class="node"><title>Node1</title>
<polygon fill="#bfbfbf" stroke="black" points="0,-57.5 0,-76.5 39,-76.5 39,-57.5 0,-57.5"/>
<text text-anchor="middle" x="19.5" y="-64.5" font-family="Helvetica,sans-Serif" font-size="10.00">main</text>
</g>
<!-- Node2 -->
<g id="node2" class="node"><title>Node2</title>
<g id="a_node2"><a xlink:href="storage_8cpp.html#ab2b66f058c5ebcf5e178deb1af383a6b" target="_top" xlink:title="parseItemList">
<polygon fill="white" stroke="black" points="87,-114.5 87,-133.5 170,-133.5 170,-114.5 87,-114.5"/>
<text text-anchor="middle" x="128.5" y="-121.5" font-family="Helvetica,sans-Serif" font-size="10.00">parseItemList</text>
</a>
</g>
</g>
<!-- Node1&#45;&gt;Node2 -->
<g id="edge1" class="edge"><title>Node1&#45;&gt;Node2</title>
<path fill="none" stroke="midnightblue" d="M32.4682,-76.7252C43.1383,-85.0499 59.4329,-96.934 75,-105 78.9805,-107.062 83.2363,-109 87.538,-110.79"/>
<polygon fill="midnightblue" stroke="midnightblue" points="86.3514,-114.084 96.9394,-114.465 88.9002,-107.565 86.3514,-114.084"/>
</g>
<!-- Node4 -->
<g id="node4" class="node"><title>Node4</title>
<g id="a_node4"><a xlink:href="storage_8cpp.html#a1b40a991b016ca74dd3938570f6a60b1" target="_top" xlink:title="parseInventoryFile">
<polygon fill="white" stroke="black" points="75,-76.5 75,-95.5 182,-95.5 182,-76.5 75,-76.5"/>
<text text-anchor="middle" x="128.5" y="-83.5" font-family="Helvetica,sans-Serif" font-size="10.00">parseInventoryFile</text>
</a>
</g>
</g>
<!-- Node1&#45;&gt;Node4 -->
<g id="edge3" class="edge"><title>Node1&#45;&gt;Node4</title>
<path fill="none" stroke="midnightblue" d="M39.138,-70.3095C46.4372,-71.6057 55.2698,-73.1741 64.4919,-74.8116"/>
<polygon fill="midnightblue" stroke="midnightblue" points="64.1396,-78.3038 74.5976,-76.6061 65.3635,-71.4116 64.1396,-78.3038"/>
</g>
<!-- Node6 -->
<g id="node6" class="node"><title>Node6</title>
<g id="a_node6"><a xlink:href="storage_8cpp.html#afe29067dcc37eb0e29a926425f6a106f" target="_top" xlink:title="printItems">
<polygon fill="white" stroke="black" points="96,-38.5 96,-57.5 161,-57.5 161,-38.5 96,-38.5"/>
<text text-anchor="middle" x="128.5" y="-45.5" font-family="Helvetica,sans-Serif" font-size="10.00">printItems</text>
</a>
</g>
</g>
<!-- Node1&#45;&gt;Node6 -->
<g id="edge5" class="edge"><title>Node1&#45;&gt;Node6</title>
<path fill="none" stroke="midnightblue" d="M39.138,-63.6905C51.9083,-61.4228 69.3724,-58.3217 85.4038,-55.475"/>
<polygon fill="midnightblue" stroke="midnightblue" points="86.4341,-58.8469 95.6681,-53.6524 85.2102,-51.9547 86.4341,-58.8469"/>
</g>
<!-- Node7 -->
<g id="node7" class="node"><title>Node7</title>
<g id="a_node7"><a xlink:href="storage_8cpp.html#aac338f4c3243b391572b950cc40f3158" target="_top" xlink:title="printInventories">
<polygon fill="white" stroke="black" points="82.5,-0.5 82.5,-19.5 174.5,-19.5 174.5,-0.5 82.5,-0.5"/>
<text text-anchor="middle" x="128.5" y="-7.5" font-family="Helvetica,sans-Serif" font-size="10.00">printInventories</text>
</a>
</g>
</g>
<!-- Node1&#45;&gt;Node7 -->
<g id="edge6" class="edge"><title>Node1&#45;&gt;Node7</title>
<path fill="none" stroke="midnightblue" d="M32.4682,-57.2748C43.1383,-48.9501 59.4329,-37.066 75,-29 78.9805,-26.9375 83.2363,-25.0002 87.538,-23.21"/>
<polygon fill="midnightblue" stroke="midnightblue" points="88.9002,-26.4355 96.9394,-19.5347 86.3514,-19.9159 88.9002,-26.4355"/>
</g>
<!-- Node3 -->
<g id="node3" class="node"><title>Node3</title>
<g id="a_node3"><a xlink:href="storage_8cpp.html#aaaf0da6a7f3fe16c549dcd9aa611797a" target="_top" xlink:title="trim">
<polygon fill="white" stroke="black" points="257,-114.5 257,-133.5 291,-133.5 291,-114.5 257,-114.5"/>
<text text-anchor="middle" x="274" y="-121.5" font-family="Helvetica,sans-Serif" font-size="10.00">trim</text>
</a>
</g>
</g>
<!-- Node2&#45;&gt;Node3 -->
<g id="edge2" class="edge"><title>Node2&#45;&gt;Node3</title>
<path fill="none" stroke="midnightblue" d="M170.237,-124C194.793,-124 225.349,-124 246.733,-124"/>
<polygon fill="midnightblue" stroke="midnightblue" points="247,-127.5 257,-124 247,-120.5 247,-127.5"/>
</g>
<!-- Node5 -->
<g id="node5" class="node"><title>Node5</title>
<g id="a_node5"><a xlink:href="classInventory.html#a6639c60f848a068bab124fdca04129b7" target="_top" xlink:title="Inventory::addItems">
<polygon fill="white" stroke="black" points="218,-76.5 218,-95.5 330,-95.5 330,-76.5 218,-76.5"/>
<text text-anchor="middle" x="274" y="-83.5" font-family="Helvetica,sans-Serif" font-size="10.00">Inventory::addItems</text>
</a>
</g>
</g>
<!-- Node4&#45;&gt;Node5 -->
<g id="edge4" class="edge"><title>Node4&#45;&gt;Node5</title>
<path fill="none" stroke="midnightblue" d="M182.119,-86C190.513,-86 199.284,-86 207.925,-86"/>
<polygon fill="midnightblue" stroke="midnightblue" points="207.978,-89.5001 217.978,-86 207.978,-82.5001 207.978,-89.5001"/>
</g>
</g>
</svg>
