<?xml version="1.0" encoding="UTF-8" standalone="no"?>
<!DOCTYPE svg PUBLIC "-//W3C//DTD SVG 1.1//EN"
 "http://www.w3.org/Graphics/SVG/1.1/DTD/svg11.dtd">
<!-- Generated by graphviz version 2.38.0 (20140413.2041)
 -->
<!-- Title: source/storage.cpp Pages: 1 -->
<svg width="471pt" height="252pt"
 viewBox="0.00 0.00 471.18 252.00" xmlns="http://www.w3.org/2000/svg" xmlns:xlink="http://www.w3.org/1999/xlink">
<g id="graph0" class="graph" transform="scale(1 1) rotate(0) translate(4 248)">
<title>source/storage.cpp</title>
<polygon fill="white" stroke="none" points="-4,4 -4,-248 467.181,-248 467.181,4 -4,4"/>
<!-- Node1 -->
<g id="node1" class="node"><title>Node1</title>
<polygon fill="#bfbfbf" stroke="black" points="217.181,-224.5 217.181,-243.5 327.181,-243.5 327.181,-224.5 217.181,-224.5"/>
<text text-anchor="middle" x="272.181" y="-231.5" font-family="Helvetica,sans-Serif" font-size="10.00">source/storage.cpp</text>
</g>
<!-- Node2 -->
<g id="node2" class="node"><title>Node2</title>
<polygon fill="white" stroke="#bfbfbf" points="164.181,-0.5 164.181,-19.5 222.181,-19.5 222.181,-0.5 164.181,-0.5"/>
<text text-anchor="middle" x="193.181" y="-7.5" font-family="Helvetica,sans-Serif" font-size="10.00">iostream</text>
</g>
<!-- Node1&#45;&gt;Node2 -->
<g id="edge1" class="edge"><title>Node1&#45;&gt;Node2</title>
<path fill="none" stroke="midnightblue" d="M217.058,-231.445C148.89,-228.226 38.7047,-218.341 13.1809,-188 -42.9066,-121.327 96.6579,-51.4687 161.832,-23.5771"/>
<polygon fill="midnightblue" stroke="midnightblue" points="163.383,-26.7219 171.244,-19.6195 160.669,-20.2691 163.383,-26.7219"/>
</g>
<!-- Node3 -->
<g id="node3" class="node"><title>Node3</title>
<polygon fill="white" stroke="#bfbfbf" points="22.1809,-168.5 22.1809,-187.5 74.1809,-187.5 74.1809,-168.5 22.1809,-168.5"/>
<text text-anchor="middle" x="48.1809" y="-175.5" font-family="Helvetica,sans-Serif" font-size="10.00">fstream</text>
</g>
<!-- Node1&#45;&gt;Node3 -->
<g id="edge2" class="edge"><title>Node1&#45;&gt;Node3</title>
<path fill="none" stroke="midnightblue" d="M235.548,-224.483C199.447,-216.045 142.467,-202.604 84.2689,-188.239"/>
<polygon fill="midnightblue" stroke="midnightblue" points="85.0893,-184.837 74.5414,-185.832 83.4079,-191.632 85.0893,-184.837"/>
</g>
<!-- Node4 -->
<g id="node4" class="node"><title>Node4</title>
<polygon fill="white" stroke="#bfbfbf" points="419.181,-0.5 419.181,-19.5 463.181,-19.5 463.181,-0.5 419.181,-0.5"/>
<text text-anchor="middle" x="441.181" y="-7.5" font-family="Helvetica,sans-Serif" font-size="10.00">string</text>
</g>
<!-- Node1&#45;&gt;Node4 -->
<g id="edge3" class="edge"><title>Node1&#45;&gt;Node4</title>
<path fill="none" stroke="midnightblue" d="M327.188,-229.778C357.914,-224.978 394.308,-213.753 416.181,-188 454.975,-142.324 449.469,-64.8469 444.421,-29.5324"/>
<polygon fill="midnightblue" stroke="midnightblue" points="447.876,-28.9715 442.855,-19.6419 440.962,-30.0663 447.876,-28.9715"/>
</g>
<!-- Node5 -->
<g id="node5" class="node"><title>Node5</title>
<polygon fill="white" stroke="#bfbfbf" points="182.181,-168.5 182.181,-187.5 230.181,-187.5 230.181,-168.5 182.181,-168.5"/>
<text text-anchor="middle" x="206.181" y="-175.5" font-family="Helvetica,sans-Serif" font-size="10.00">cstdlib</text>
</g>
<!-- Node1&#45;&gt;Node5 -->
<g id="edge4" class="edge"><title>Node1&#45;&gt;Node5</title>
<path fill="none" stroke="midnightblue" d="M261.577,-224.324C251.725,-216.263 236.83,-204.077 224.966,-194.369"/>
<polygon fill="midnightblue" stroke="midnightblue" points="226.934,-191.457 216.978,-187.834 222.501,-196.875 226.934,-191.457"/>
</g>
<!-- Node6 -->
<g id="node6" class="node"><title>Node6</title>
<polygon fill="white" stroke="#bfbfbf" points="248.681,-168.5 248.681,-187.5 295.681,-187.5 295.681,-168.5 248.681,-168.5"/>
<text text-anchor="middle" x="272.181" y="-175.5" font-family="Helvetica,sans-Serif" font-size="10.00">vector</text>
</g>
<!-- Node1&#45;&gt;Node6 -->
<g id="edge5" class="edge"><title>Node1&#45;&gt;Node6</title>
<path fill="none" stroke="midnightblue" d="M272.181,-224.083C272.181,-217.006 272.181,-206.861 272.181,-197.986"/>
<polygon fill="midnightblue" stroke="midnightblue" points="275.681,-197.751 272.181,-187.751 268.681,-197.751 275.681,-197.751"/>
</g>
<!-- Node7 -->
<g id="node7" class="node"><title>Node7</title>
<polygon fill="white" stroke="#bfbfbf" points="314.181,-168.5 314.181,-187.5 374.181,-187.5 374.181,-168.5 314.181,-168.5"/>
<text text-anchor="middle" x="344.181" y="-175.5" font-family="Helvetica,sans-Serif" font-size="10.00">algorithm</text>
</g>
<!-- Node1&#45;&gt;Node7 -->
<g id="edge6" class="edge"><title>Node1&#45;&gt;Node7</title>
<path fill="none" stroke="midnightblue" d="M283.749,-224.324C294.601,-216.185 311.062,-203.839 324.064,-194.087"/>
<polygon fill="midnightblue" stroke="midnightblue" points="326.502,-196.634 332.402,-187.834 322.302,-191.034 326.502,-196.634"/>
</g>
<!-- Node8 -->
<g id="node8" class="node"><title>Node8</title>
<g id="a_node8"><a xlink:href="Inventory_8h.html" target="_top" xlink:title="Inventory.h">
<polygon fill="white" stroke="black" points="92.6809,-168.5 92.6809,-187.5 163.681,-187.5 163.681,-168.5 92.6809,-168.5"/>
<text text-anchor="middle" x="128.181" y="-175.5" font-family="Helvetica,sans-Serif" font-size="10.00">Inventory.h</text>
</a>
</g>
</g>
<!-- Node1&#45;&gt;Node8 -->
<g id="edge7" class="edge"><title>Node1&#45;&gt;Node8</title>
<path fill="none" stroke="midnightblue" d="M249.364,-224.444C225.349,-215.438 187.352,-201.189 160.312,-191.049"/>
<polygon fill="midnightblue" stroke="midnightblue" points="161.484,-187.751 150.891,-187.516 159.026,-194.305 161.484,-187.751"/>
</g>
<!-- Node9 -->
<g id="node9" class="node"><title>Node9</title>
<g id="a_node9"><a xlink:href="ItemStack_8h.html" target="_top" xlink:title="ItemStack.h">
<polygon fill="white" stroke="black" points="205.681,-112.5 205.681,-131.5 278.681,-131.5 278.681,-112.5 205.681,-112.5"/>
<text text-anchor="middle" x="242.181" y="-119.5" font-family="Helvetica,sans-Serif" font-size="10.00">ItemStack.h</text>
</a>
</g>
</g>
<!-- Node1&#45;&gt;Node9 -->
<g id="edge14" class="edge"><title>Node1&#45;&gt;Node9</title>
<path fill="none" stroke="midnightblue" d="M316.935,-224.425C356.235,-214.802 404.127,-196.672 383.181,-168 361.776,-138.699 321.08,-128.032 288.891,-124.356"/>
<polygon fill="midnightblue" stroke="midnightblue" points="289.06,-120.856 278.773,-123.393 288.397,-127.825 289.06,-120.856"/>
</g>
<!-- Node10 -->
<g id="node10" class="node"><title>Node10</title>
<g id="a_node10"><a xlink:href="Item_8h.html" target="_top" xlink:title="Item.h">
<polygon fill="white" stroke="black" points="345.181,-56.5 345.181,-75.5 391.181,-75.5 391.181,-56.5 345.181,-56.5"/>
<text text-anchor="middle" x="368.181" y="-63.5" font-family="Helvetica,sans-Serif" font-size="10.00">Item.h</text>
</a>
</g>
</g>
<!-- Node1&#45;&gt;Node10 -->
<g id="edge15" class="edge"><title>Node1&#45;&gt;Node10</title>
<path fill="none" stroke="midnightblue" d="M327.258,-227.941C353.582,-222.433 382.848,-211.116 399.181,-188 421.707,-156.121 397.228,-109.249 380.71,-84.2305"/>
<polygon fill="midnightblue" stroke="midnightblue" points="383.444,-82.0305 374.883,-75.7885 377.683,-86.0067 383.444,-82.0305"/>
</g>
<!-- Node8&#45;&gt;Node2 -->
<g id="edge8" class="edge"><title>Node8&#45;&gt;Node2</title>
<path fill="none" stroke="midnightblue" d="M131.676,-168.075C141.951,-141.832 172.214,-64.5453 186.087,-29.1165"/>
<polygon fill="midnightblue" stroke="midnightblue" points="189.439,-30.1559 189.826,-19.5681 182.921,-27.6036 189.439,-30.1559"/>
</g>
<!-- Node8&#45;&gt;Node9 -->
<g id="edge9" class="edge"><title>Node8&#45;&gt;Node9</title>
<path fill="none" stroke="midnightblue" d="M146.245,-168.444C164.756,-159.675 193.762,-145.935 215.036,-135.858"/>
<polygon fill="midnightblue" stroke="midnightblue" points="216.663,-138.96 224.202,-131.516 213.666,-132.634 216.663,-138.96"/>
</g>
<!-- Node9&#45;&gt;Node2 -->
<g id="edge10" class="edge"><title>Node9&#45;&gt;Node2</title>
<path fill="none" stroke="midnightblue" d="M238.336,-112.368C230.357,-94.4563 211.856,-52.9233 201.176,-28.9482"/>
<polygon fill="midnightblue" stroke="midnightblue" points="204.274,-27.3019 197.008,-19.5914 197.88,-30.1503 204.274,-27.3019"/>
</g>
<!-- Node9&#45;&gt;Node10 -->
<g id="edge11" class="edge"><title>Node9&#45;&gt;Node10</title>
<path fill="none" stroke="midnightblue" d="M262.146,-112.444C282.79,-103.596 315.243,-89.6875 338.812,-79.5865"/>
<polygon fill="midnightblue" stroke="midnightblue" points="340.497,-82.6727 348.309,-75.5164 337.739,-76.2387 340.497,-82.6727"/>
</g>
<!-- Node10&#45;&gt;Node2 -->
<g id="edge12" class="edge"><title>Node10&#45;&gt;Node2</title>
<path fill="none" stroke="midnightblue" d="M344.942,-57.8292C315.748,-48.8206 265.281,-33.2482 230.616,-22.5513"/>
<polygon fill="midnightblue" stroke="midnightblue" points="231.435,-19.1413 220.848,-19.5371 229.371,-25.8301 231.435,-19.1413"/>
</g>
<!-- Node10&#45;&gt;Node4 -->
<g id="edge13" class="edge"><title>Node10&#45;&gt;Node4</title>
<path fill="none" stroke="midnightblue" d="M379.91,-56.324C391.018,-48.1066 407.923,-35.6017 421.164,-25.8069"/>
<polygon fill="midnightblue" stroke="midnightblue" points="423.281,-28.5948 429.239,-19.8339 419.118,-22.9671 423.281,-28.5948"/>
</g>
</g>
</svg>
