<?xml version="1.0" encoding="UTF-8" standalone="no"?>
<!DOCTYPE svg PUBLIC "-//W3C//DTD SVG 1.1//EN"
 "http://www.w3.org/Graphics/SVG/1.1/DTD/svg11.dtd">
<!-- Generated by graphviz version 2.38.0 (20140413.2041)
 -->
<!-- Title: Inventory::Node Pages: 1 -->
<svg width="142pt" height="162pt"
 viewBox="0.00 0.00 142.00 162.00" xmlns="http://www.w3.org/2000/svg" xmlns:xlink="http://www.w3.org/1999/xlink">
<g id="graph0" class="graph" transform="scale(1 1) rotate(0) translate(4 158)">
<title>Inventory::Node</title>
<polygon fill="white" stroke="none" points="-4,4 -4,-158 138,-158 138,4 -4,4"/>
<!-- Node1 -->
<g id="node1" class="node"><title>Node1</title>
<polygon fill="#bfbfbf" stroke="black" points="0,-0.5 0,-19.5 92,-19.5 92,-0.5 0,-0.5"/>
<text text-anchor="middle" x="46" y="-7.5" font-family="Helvetica,sans-Serif" font-size="10.00">Inventory::Node</text>
</g>
<!-- Node1&#45;&gt;Node1 -->
<g id="edge3" class="edge"><title>Node1&#45;&gt;Node1</title>
<path fill="none" stroke="#9a32cd" stroke-dasharray="5,2" d="M102.274,-14.6596C107.034,-13.6626 110,-12.1094 110,-10 110,-6.625 102.406,-4.67383 92.0242,-4.14648"/>
<polygon fill="#9a32cd" stroke="#9a32cd" points="101.552,-11.2199 92.0242,-15.8535 102.362,-18.1729 101.552,-11.2199"/>
<text text-anchor="middle" x="122" y="-7.5" font-family="Helvetica,sans-Serif" font-size="10.00"> next</text>
</g>
<!-- Node2 -->
<g id="node2" class="node"><title>Node2</title>
<g id="a_node2"><a xlink:href="classItemStack.html" target="_top" xlink:title="ItemStack">
<polygon fill="white" stroke="black" points="13.5,-67.5 13.5,-86.5 78.5,-86.5 78.5,-67.5 13.5,-67.5"/>
<text text-anchor="middle" x="46" y="-74.5" font-family="Helvetica,sans-Serif" font-size="10.00">ItemStack</text>
</a>
</g>
</g>
<!-- Node2&#45;&gt;Node1 -->
<g id="edge1" class="edge"><title>Node2&#45;&gt;Node1</title>
<path fill="none" stroke="#9a32cd" stroke-dasharray="5,2" d="M46,-57.037C46,-44.6703 46,-29.1198 46,-19.6273"/>
<polygon fill="#9a32cd" stroke="#9a32cd" points="42.5001,-57.2338 46,-67.2338 49.5001,-57.2338 42.5001,-57.2338"/>
<text text-anchor="middle" x="58.5" y="-41" font-family="Helvetica,sans-Serif" font-size="10.00"> data</text>
</g>
<!-- Node3 -->
<g id="node3" class="node"><title>Node3</title>
<g id="a_node3"><a xlink:href="classItem.html" target="_top" xlink:title="Item">
<polygon fill="white" stroke="black" points="27,-134.5 27,-153.5 65,-153.5 65,-134.5 27,-134.5"/>
<text text-anchor="middle" x="46" y="-141.5" font-family="Helvetica,sans-Serif" font-size="10.00">Item</text>
</a>
</g>
</g>
<!-- Node3&#45;&gt;Node2 -->
<g id="edge2" class="edge"><title>Node3&#45;&gt;Node2</title>
<path fill="none" stroke="#9a32cd" stroke-dasharray="5,2" d="M46,-124.037C46,-111.67 46,-96.1198 46,-86.6273"/>
<polygon fill="#9a32cd" stroke="#9a32cd" points="42.5001,-124.234 46,-134.234 49.5001,-124.234 42.5001,-124.234"/>
<text text-anchor="middle" x="57.5" y="-108" font-family="Helvetica,sans-Serif" font-size="10.00"> item</text>
</g>
</g>
</svg>
